<svg id="Layer_1" data-name="Layer 1" xmlns="http://www.w3.org/2000/svg" viewBox="0 0 1602.42 382.47">
  <defs>
    <style>
      .cls-1 {
        fill: #fff;
      }
    </style>
  </defs>
  <title>namawaliya.logo</title>
  <g>
    <path class="cls-1" d="M159.25,285.46q-6.69-13.41-22.89-13.4a58.24,58.24,0,0,0-12.84,1.67q17.87,8.38,17.87,31.83,0,13.95-8.38,21.21-10.6,9.5-23.44,9.49-13.41,0-24-11T75,300.84q0-15.76,10.33-26.72t26.52-13.78a117.7,117.7,0,0,1,15.63-1.12q31.26,0,43.55,29.33,5.57,13.54,3.91,24.82,18.42-54.15,69.78-54.15,36.3,0,57,38,17.29,33,16.75,79.28a145.28,145.28,0,0,1-16.75,66.44q-18.42,36.3-48,39.64-17.31,2.22-30.15-5.86t-13.4-20.94q-.57-10.61,7.54-19.54t24.84-9.49q-14.52,10.6-14.51,22.33,0,7.83,6.42,14a23,23,0,0,0,14.79,6.7q14,1.13,29-10.61,25.68-20.1,25.69-71.46,0-10-1.12-21.22a108,108,0,0,0-15.08-44.66q-13.4-22.89-32.94-29a58.38,58.38,0,0,0-19.54-3.35q-36.3,0-55.27,34.06-5,8.38-10.61,24h9.49q14,0,27.92,12.63,8.92,8.25,13.4,25.26a51.41,51.41,0,0,1,1.67,13.74q0,24.17-11.44,42.29a87.07,87.07,0,0,1-31.27,29.39,87.67,87.67,0,0,1-41.59,11.8q-53,1.11-77.6-44.49a89.55,89.55,0,0,1-11.17-41.74q-1.12-27.46,8.93-48.88h7.82q-6.7,19,1.11,24.92a57.3,57.3,0,0,0,35.74,11.93,75.76,75.76,0,0,0,21.77-3.35q27.35-8.93,38-39.09a81.31,81.31,0,0,0,4.46-25.68A70.09,70.09,0,0,0,159.25,285.46ZM58.76,377.58q-3.91,25.13,8.93,45.78Q88.9,458,136.36,453.51q28.48-2.79,48.86-19.27t20.37-42.15A43.93,43.93,0,0,0,198.06,367q-7.55-11.16-20.38-11.73c-5.22,0-9.49,1.31-12.84,3.91q-14,24-43.55,31.83a74.84,74.84,0,0,1-20.1,2.79Q75.51,393.77,58.76,377.58Zm27.35-73.7a23.84,23.84,0,0,0,23.46,23.45,22.86,22.86,0,0,0,22.88-22.89,24,24,0,0,0-6.69-16.75,21.29,21.29,0,0,0-16.19-7.26,22.25,22.25,0,0,0-16.75,7A23,23,0,0,0,86.11,303.88Z" transform="translate(-48.6 -162.63)"/>
    <path class="cls-1" d="M340.7,318.4Q323.38,306.67,323.39,291q0-15.07,10.89-23.45t26.51-8.37q31.83,0,52.76,31.54t20.94,80.68q0,53.6-18.42,83.18-19.56,31.83-55.28,27.92-38-4.47-38-33.5,0-21.78,19.54-28.47-5.58,13.4-2.23,29.59,5,22.89,21.21,24,43,2.8,44.67-99.93.54-36.86-10-67.56-12.29-37.4-35.18-37.4-10.6,0-19.54,7.53t-8.93,18.71q0,10.61,8.93,21.77Z" transform="translate(-48.6 -162.63)"/>
    <path class="cls-1" d="M428.9,225.16q.57-22.89,25.69-22.89a44.9,44.9,0,0,1,11.72,1.67q-17.88,4.49-17.87,21.22,0,15.65,14.52,12.84,10.05-1.68,26.24-21.77a102.37,102.37,0,0,1,36.85-28.48q21.76-10,55.83-10.05,59.18,0,96.31,43.27t37.12,113.62q0,12.29-1.11,25.12-5.6,58.08-44.67,91.56-36.3,30.72-89.88,31.27-54.17.54-90.17-33.22t-38.24-86.26q-1.68-40.74,16.19-70.35T516,259.22q13.95-1.68,21.77,6.42T543.91,286q-1.12,6.15-5.86,15.63T533.31,319a50.29,50.29,0,0,0,.56,7.25q2.22,13.41,17,20.94t33.78,6.42q16.76-.56,29.87-13.12t13.12-32.1a72.34,72.34,0,0,0-.56-8.93q-6.69,29-33.5,29.59-15.08,0-25.4-8.94a30.05,30.05,0,0,1-10.89-22.33q-.55-16.75,9.22-27.08a32.05,32.05,0,0,1,24.28-10.33q19,0,30.15,14,1.11-11.32-2.79-17-10-16.44-24-15.31a22.54,22.54,0,0,1,13.4-4q15.08,0,23.45,13.45t0,32q6.71,12.91,6.7,30.28,0,23-13.4,39.24Q609.24,370.87,583,372q-26.81,1.13-44.11-15.07-14-12.84-15.63-28.47-1.12-11.73,4.46-24.57,6.71-15.61,7.26-17.31a16,16,0,0,0-2.79-13.67q-4.47-5.86-14.52-5.31-25.11,2.24-39.64,29.59T466.31,362q3.35,40.76,35.45,65.88T578.53,453q50.25,0,84.58-31.27t37.69-83.74q3.9-62-30.15-106.64-33.49-43-83.19-44.1-41.87-1.12-67,16.19-7.28,5-34.62,32.94-10.61,11.17-29,11.16Q428.35,247.49,428.9,225.16Zm142.37,53.6a25.32,25.32,0,0,0-5,15.63,24.88,24.88,0,0,0,10,20.66,25.3,25.3,0,0,0,15.63,5A24.91,24.91,0,0,0,612.59,310a25.3,25.3,0,0,0,5-15.63,24.91,24.91,0,0,0-10.05-20.66,25.32,25.32,0,0,0-15.63-5A24.88,24.88,0,0,0,571.27,278.76Z" transform="translate(-48.6 -162.63)"/>
    <path class="cls-1" d="M737.64,318.4Q720.33,306.67,720.33,291q0-15.07,10.89-23.45t26.52-8.37q31.82,0,52.76,31.54t20.93,80.68q0,53.6-18.42,83.18-19.54,31.83-55.27,27.92-38-4.47-38-33.5,0-21.78,19.55-28.47-5.6,13.4-2.24,29.59,5,22.89,21.22,24,43,2.8,44.66-99.93.56-36.86-10.05-67.56-12.28-37.4-35.17-37.4-10.61,0-19.54,7.53t-8.93,18.71q0,10.61,8.93,21.77Z" transform="translate(-48.6 -162.63)"/>
    <path class="cls-1" d="M906.25,329.56q17.29-3.35,41.87-3.35,24,0,38,4.47-1.67-38-29.59-54.16-17.31-10-52.48-2.79,16.75,7.83,16.75,27.92,0,14.52-9.49,21.77-11.73,9.49-24,9.49-12.85,0-22.33-9.77t-9.49-22.61a36.4,36.4,0,0,1,10.33-26q10.32-10.89,26.52-13.68a167.26,167.26,0,0,1,26.23-2.23q41.33,0,61.42,24.56,14.5,17.88,14.52,43.55A82.17,82.17,0,0,1,992.78,343q-14-7.24-48.58-7.26-21.76,0-35.72,3.35-22.34,5-34.62,19.54t-10.6,32.94q6.12,64.22,112.21,62,50.25-1.11,84.3-38T1095,327.33q1.11-60.3-32.94-100.5-36.85-43-101-41.31-53.06,1.68-73.7,20.66-11.73,11.17-6.7,23.45,3.36,8.37,17.3,8.37a25.91,25.91,0,0,0,10.62-2.23q-8.38,14-25.12,15.63-24,2.23-26.25-16.75-3.35-26.79,31.26-43.55,29-14.5,67-15.63A186.26,186.26,0,0,1,1016,183q28.75,8.66,47.18,28.19,24.55,25.7,35.72,61.42a229.48,229.48,0,0,1,9.5,67q-.55,65.33-36.29,104.13T975.47,483.1q-56.38.54-90.44-21.78-37.41-24-36.85-68.67,0-23.44,19-41.87A72.46,72.46,0,0,1,906.25,329.56Zm-38.53-29a20,20,0,1,0,5.86-14.24A19.39,19.39,0,0,0,867.72,300.53Z" transform="translate(-48.6 -162.63)"/>
    <path class="cls-1" d="M1208.84,323.42q5.57,15.07,24.56,15.08a88.44,88.44,0,0,0,20.1-2.8q8.37-4.45,37.41-10.05a36.25,36.25,0,0,1,26.79,8.66q11.73,9.78,12.85,26-19.56-16.18-32.94-16.19-26.25,0-39.09,11.72-23.44,21.22-20.09,50.81,2.77,21.76,19,35.45t38,13.68q31.24,0,50.8-28.47,18.42-26.24,19-62,.55-40.2-28.75-69.23t-70.07-29q-53,0-84.3,41.87-27.93,37.43-27.92,92.13,0,56.39,31.27,95.47,32.37,40.74,82.62,40.75a131.45,131.45,0,0,0,55.28-12q26.24-12,35.17-29.31a39.66,39.66,0,0,0,4.47-17.87q0-13.95-11.73-14.51,6.15-10.6,16.19-10.61,7.81,0,11.17,5c1.12,1.87,1.67,4.47,1.67,7.82q0,10.6-7.81,25.68-13.39,25.68-43.55,40.2-27.93,12.84-61.41,13.4-71.48,1.11-110-42.43-36.3-40.75-32.38-106.08,3.35-59.18,39.64-97.14,38-40.2,97.7-40.2,46.9,0,80.68,31.54t35.45,77.88q1.68,44.12-19.54,77.05-22.9,36.85-60.86,36.85-35.16,0-55-21.22t-19.26-53q1.11-34.61,26.8-54.15a46.81,46.81,0,0,1-12.28,1.67q-19.56,0-27.36-11.72Q1205.49,336.27,1208.84,323.42Z" transform="translate(-48.6 -162.63)"/>
    <path class="cls-1" d="M1213.3,241.35q-11.73,17.31-27.92,17.31-31.26,0-31.26-29,0-30.15,31.82-49.13,29-17.87,69.23-17.87,46.35,0,75.37,16.19,34.07,18.42,30.15,53-2.79,26.8-31.26,26.8-24.57,0-30.71-18.43,9.49,6.15,24.57,6.15,26.25,0,27.35-15.08,2.23-39.08-92.68-40.2t-94.91,38.53q0,16.74,27.36,16.75Q1203.8,246.38,1213.3,241.35Z" transform="translate(-48.6 -162.63)"/>
    <path class="cls-1" d="M1503.05,302.21q8.92-13.41,5-24-3.91-10.05-21.78-10.05a67.31,67.31,0,0,0-22.33,3.91q-24,8.37-39.08,36.57a125.42,125.42,0,0,0-15.07,60q0,35.75,16.75,59.74Q1445,455.74,1479,455.74q29,0,40.76-17.87-14-21.76-11.72-38.52,2.78-20.1,17.3-19.54,15.63.56,15.64,22.33,0,16.2-11.73,36.29,16.18,19,46.9,16.19,46.9-3.9,51.92-46.34,3.35-27.34-15.63-47.45-17.31-18.42-43.55-21.22a84.12,84.12,0,0,0-38.52,4.47,70.39,70.39,0,0,1,8.1-57.23,57,57,0,0,1,29.87-23.72,68.86,68.86,0,0,1,22.88-3.91q24,0,38,13.68a41.25,41.25,0,0,1,12.84,33.21q-1.68,33-35.73,29.59a31.54,31.54,0,0,1-17.59-8.37q-8.1-7.24-8.09-17.31,0-16.18,13.4-20.1a19.18,19.18,0,0,0-4.47,12.29q0,12.84,10.05,17.86a30.28,30.28,0,0,0,14.51,3.91q17.86,0,17.87-17.31,0-11.71-10.61-20.38t-29-10.33q-26.25-2.22-42.15,14.8t-13.12,41.6a107.55,107.55,0,0,1,26.24-3.35q29.58,0,55.83,19,30.71,22.33,31.82,59.18.55,33.49-21.49,55.27t-54.44,20.1q-32.38-1.68-50.8-36.85-15.07,39.65-64.21,36.85-39.07-2.24-54.71-54.16a170.91,170.91,0,0,1-6.14-63.08q5.57-60.85,43.55-91,19-15.07,50.24-15.07,29,0,32.38,17.86T1503.05,302.21Zm22.33,85.42q-9.5-2.24-10,15.63-.57,16.75,8.93,28.47,10.05-19,8.93-31.26Q1533.2,389.31,1525.38,387.63Z" transform="translate(-48.6 -162.63)"/>
  </g>
</svg>
